<svg width="30" height="19" viewBox="0 0 30 19" fill="none" xmlns="http://www.w3.org/2000/svg">
<path d="M7.12998 0.483664C3.14748 0.475226 0.422168 2.97273 0.439043 6.55023C0.44748 9.73116 2.61592 12.043 5.71248 12.043C7.64467 12.043 9.38279 11.1149 10.1 9.56241H10.2012C10.1928 12.7096 9.15498 14.6755 7.04561 14.6755C5.88123 14.6755 4.98686 14.1018 4.73373 12.9459H0.624668C0.936855 15.9243 3.40061 18.2362 7.04561 18.2362C11.45 18.2362 14.3356 14.7684 14.3187 9.00554C14.3103 2.76179 10.9184 0.492102 7.12998 0.483664ZM7.15529 3.68991C8.68248 3.68991 9.80467 4.89648 9.82154 6.40679C9.82998 7.92554 8.65717 9.14054 7.13842 9.14054C5.59436 9.14054 4.49748 7.95929 4.48904 6.41523C4.47217 4.8796 5.61123 3.68991 7.15529 3.68991Z" fill="#4068C5"/>
<path d="M21.7922 15.5024H25.1926V11.098H29.5969V7.69773H25.1926V3.28491H21.7922V7.69773H17.3794V11.098H21.7922V15.5024Z" fill="#4068C5"/>
</svg>
