<svg width="32" height="32" viewBox="0 0 32 32" fill="none" xmlns="http://www.w3.org/2000/svg">
<g clip-path="url(#clip0_608_3845)">
<path d="M10.6705 16.3349C11.0645 16.2533 11.4761 16.0745 11.8644 15.7942C12.981 14.9865 13.4766 13.6602 12.9702 12.8305C12.4196 11.9279 10.9134 11.9886 9.75601 13.0158C8.64922 13.9714 8.41309 14.9699 8.41309 16.0193C8.41309 16.7608 8.65025 18.0849 10.099 19.2347C10.7831 18.7062 11.5986 18.2713 12.5243 17.9569L12.5365 17.9525C11.8253 17.6561 10.8981 17.071 10.6705 16.3349ZM10.4918 13.7827C10.4918 13.4726 10.7389 13.2233 11.0436 13.2233C11.348 13.2233 11.5953 13.4738 11.5953 13.7838C11.5953 14.0939 11.348 14.3432 11.0436 14.3432C10.7389 14.3432 10.4918 14.0927 10.4918 13.7827Z" fill="url(#paint0_linear_608_3845)"/>
<path d="M23.6067 16.0204C23.6034 14.9699 23.3684 13.9714 22.2606 13.0158C21.1041 11.9896 19.5969 11.9267 19.0462 12.8305C18.5409 13.6602 19.0352 14.9865 20.1518 15.7942C20.5402 16.0745 20.9519 16.2532 21.3457 16.3349C21.2089 16.7773 20.7929 17.2275 20.1585 17.6071C19.2861 18.1278 18.8149 18.1922 13.2334 20.0456C11.1679 20.7474 9.93872 22.142 9.93872 23.7763C9.93872 24.9404 10.5334 25.8385 11.3598 26.4962C11.8796 25.961 12.5284 25.4966 13.2865 25.1246C12.4137 24.6833 12.1444 24.3489 12.1444 23.7763C12.1444 22.8311 14.0337 22.2907 14.9053 22.0031V24.3953L17.1121 23.411V22.0042C17.985 22.2933 19.8695 22.833 19.8695 23.7763C19.8695 25.3455 15.376 26.2709 13.4641 27.5897C12.5362 28.233 12.0373 29.0506 12.0373 30.0117C12.0373 30.5634 12.1014 31.2475 13.0701 31.9272C13.3448 32.1466 13.7265 31.8261 13.5481 31.5177C12.9079 30.2367 13.5876 29.5968 14.9074 29.0428V30.8943C14.9074 31.5034 15.4017 31.9977 16.0108 31.9977C16.6199 31.9977 17.1142 31.5034 17.1142 30.8943V29.0439C18.382 29.5757 19.1799 30.3272 18.4703 31.5177C18.2945 31.8201 18.6689 32.1493 18.947 31.9272C19.8849 31.2165 19.9588 30.6074 19.9588 30.026C19.9588 29.1312 19.469 28.2628 18.5398 27.5974C20.4179 26.9188 22.0796 25.7768 22.0796 23.7785C22.0796 22.3981 21.2025 21.1888 19.6863 20.423C20.3946 20.1681 20.751 19.9971 21.2244 19.7147C23.2977 18.4755 23.6067 16.8679 23.6067 16.0204ZM20.974 14.3432C20.6693 14.3432 20.4223 14.0927 20.4223 13.7827C20.4223 13.4726 20.6693 13.2221 20.974 13.2221C21.2784 13.2221 21.5257 13.4726 21.5257 13.7827C21.5257 14.0927 21.2785 14.3432 20.974 14.3432Z" fill="url(#paint1_linear_608_3845)"/>
<path d="M31.4478 2.20896H23.8911C22.4087 2.20896 21.2962 2.86425 20.3392 3.82132C19.2995 4.86101 18.7589 7.17218 17.1035 7.17218V4.10759C17.7604 3.72533 18.2069 3.0217 18.2069 2.20683C18.2069 0.988037 17.2189 0 16 0C14.7812 0 13.7932 0.988037 13.7932 2.20683C13.7932 3.02163 14.2397 3.72526 14.8966 4.10759V17.2579C15.5776 17.0406 16.3251 16.8012 17.1035 16.5513V11.0242C17.5822 10.784 17.9685 10.3957 18.2053 9.91506C18.5891 10.571 19.3188 11.0363 20.132 11.0363C20.9569 11.0363 21.6676 10.5783 22.0462 9.90802C23.3388 11.2007 25.7415 11.2256 27.0342 9.93299L25.159 8.05788L26.0192 8.41421C27.7083 9.11384 29.6446 8.31173 30.3444 6.62268L27.6806 5.51927C30.2612 5.5192 31.4478 3.89987 31.4478 2.20896Z" fill="url(#paint2_linear_608_3845)"/>
<path d="M11.6609 3.82132C10.7038 2.86425 9.5914 2.20896 8.10897 2.20896H0.552246C0.552246 3.8998 1.7389 5.5192 4.3195 5.5192L1.65566 6.62261C2.35536 8.31166 4.29178 9.1137 5.98083 8.41414L6.84101 8.05781L4.9659 9.93292C6.25854 11.2256 8.66123 11.2007 9.95387 9.90795C10.3325 10.5783 11.0431 11.0363 11.868 11.0363C11.8762 11.0363 11.8843 11.0362 11.8924 11.0361C12.9706 11.0238 13.7947 10.0499 13.7947 8.97178V6.75185C12.925 6.03829 12.4269 4.58737 11.6609 3.82132Z" fill="url(#paint3_linear_608_3845)"/>
</g>
<defs>
<linearGradient id="paint0_linear_608_3845" x1="10.7909" y1="12.1965" x2="10.7909" y2="19.2347" gradientUnits="userSpaceOnUse">
<stop stop-color="#2ABB87"/>
<stop offset="1" stop-color="#5FED65"/>
</linearGradient>
<linearGradient id="paint1_linear_608_3845" x1="16.7727" y1="12.1964" x2="16.7727" y2="32" gradientUnits="userSpaceOnUse">
<stop stop-color="#2ABB87"/>
<stop offset="1" stop-color="#5FED65"/>
</linearGradient>
<linearGradient id="paint2_linear_608_3845" x1="22.6205" y1="0" x2="22.6205" y2="17.2579" gradientUnits="userSpaceOnUse">
<stop stop-color="#2ABB87"/>
<stop offset="1" stop-color="#5FED65"/>
</linearGradient>
<linearGradient id="paint3_linear_608_3845" x1="7.17348" y1="2.20896" x2="7.17348" y2="11.0363" gradientUnits="userSpaceOnUse">
<stop stop-color="#2ABB87"/>
<stop offset="1" stop-color="#5FED65"/>
</linearGradient>
<clipPath id="clip0_608_3845">
<rect width="32" height="32" fill="white"/>
</clipPath>
</defs>
</svg>
