<svg width="30" height="30" viewBox="0 0 30 30" fill="none" xmlns="http://www.w3.org/2000/svg">
<path d="M29.29 24.06C30.2356 21.3043 30.2282 18.3109 29.2689 15.56C28.3096 12.8091 26.4541 10.4601 24 8.89C23.9674 8.49542 23.8764 8.10786 23.73 7.74L25 6.47C25.0937 6.37704 25.1681 6.26644 25.2189 6.14458C25.2697 6.02272 25.2958 5.89201 25.2958 5.76C25.2958 5.62799 25.2697 5.49728 25.2189 5.37542C25.1681 5.25356 25.0937 5.14296 25 5.05L24.87 4.92L26.4 3.39C26.4937 3.29704 26.5681 3.18644 26.6189 3.06458C26.6697 2.94272 26.6958 2.81201 26.6958 2.68C26.6958 2.54799 26.6697 2.41728 26.6189 2.29542C26.5681 2.17356 26.4937 2.06296 26.4 1.97L24.68 0.29C24.4987 0.110023 24.2554 0.00625953 24 -4.51846e-07C23.8684 -0.000761345 23.7379 0.0244637 23.6161 0.0742283C23.4943 0.123993 23.3834 0.197318 23.29 0.29L21.74 1.83L21.6 1.69C21.4137 1.50526 21.1623 1.4011 20.9 1.4C20.7684 1.39924 20.6379 1.42446 20.5161 1.47423C20.3943 1.52399 20.2834 1.59732 20.19 1.69L11.79 10.09C11.6127 10.276 11.5138 10.5231 11.5138 10.78C11.5138 11.0369 11.6127 11.284 11.79 11.47L10.49 12.77C10.3963 12.863 10.3219 12.9736 10.2711 13.0954C10.2203 13.2173 10.1942 13.348 10.1942 13.48C10.1942 13.612 10.2203 13.7427 10.2711 13.8646C10.3219 13.9864 10.3963 14.097 10.49 14.19L12.49 16.19C12.5834 16.2827 12.6943 16.356 12.8161 16.4058C12.9379 16.4555 13.0684 16.4808 13.2 16.48C13.4623 16.4789 13.7137 16.3747 13.9 16.19L15.2 14.89C15.386 15.0673 15.6331 15.1662 15.89 15.1662C16.1469 15.1662 16.394 15.0673 16.58 14.89L18.47 13C18.954 13.2051 19.4743 13.3106 20 13.31C20.5817 13.3037 21.155 13.1706 21.68 12.92C23.439 14.0912 24.6891 15.8852 25.1789 17.9408C25.6687 19.9965 25.3618 22.1614 24.32 24H10.16L9.47 22.5H15C15.2652 22.5 15.5196 22.3946 15.7071 22.2071C15.8946 22.0196 16 21.7652 16 21.5V18.5C16 18.2348 15.8946 17.9804 15.7071 17.7929C15.5196 17.6054 15.2652 17.5 15 17.5H1C0.734784 17.5 0.48043 17.6054 0.292893 17.7929C0.105357 17.9804 0 18.2348 0 18.5V21.5C0 21.7652 0.105357 22.0196 0.292893 22.2071C0.48043 22.3946 0.734784 22.5 1 22.5H2.84L3.54 24H1C0.734784 24 0.48043 24.1054 0.292893 24.2929C0.105357 24.4804 0 24.7348 0 25V29C0 29.2652 0.105357 29.5196 0.292893 29.7071C0.48043 29.8946 0.734784 30 1 30H29C29.2652 30 29.5196 29.8946 29.7071 29.7071C29.8946 29.5196 30 29.2652 30 29V25C29.9964 24.7883 29.9257 24.5833 29.7981 24.4144C29.6705 24.2454 29.4926 24.1214 29.29 24.06ZM18.86 10.91C18.7397 10.8182 18.626 10.718 18.52 10.61L18.46 10.53C18.3854 10.4391 18.3185 10.3421 18.26 10.24L18.21 10.14C18.1597 10.0375 18.1195 9.93033 18.09 9.82V9.72C18.0586 9.57201 18.0418 9.42128 18.04 9.27C18.04 8.73957 18.2507 8.23086 18.6258 7.85579C19.0009 7.48071 19.5096 7.27 20.04 7.27C20.1913 7.27183 20.342 7.28857 20.49 7.32H20.6C20.7065 7.35133 20.8102 7.39147 20.91 7.44L21.02 7.5C21.1193 7.55403 21.2131 7.61767 21.3 7.69C21.331 7.7078 21.3582 7.7316 21.38 7.76C21.4926 7.85784 21.5933 7.9686 21.68 8.09V8.09C21.9072 8.44029 22.0191 8.85291 22 9.27C22 9.27 22 9.32 22 9.35C21.999 9.36665 21.999 9.38335 22 9.4C21.9829 9.69426 21.9009 9.98111 21.76 10.24C21.6983 10.3622 21.6173 10.4737 21.52 10.57V10.57C21.4228 10.6767 21.3157 10.7738 21.2 10.86V10.86C20.8656 11.0934 20.4678 11.219 20.06 11.22C19.6377 11.2423 19.2187 11.1341 18.86 10.91V10.91Z" fill="black"/>
<path d="M29.29 24.06C30.2356 21.3043 30.2282 18.3109 29.2689 15.56C28.3096 12.8091 26.4541 10.4601 24 8.89C23.9674 8.49542 23.8764 8.10786 23.73 7.74L25 6.47C25.0937 6.37704 25.1681 6.26644 25.2189 6.14458C25.2697 6.02272 25.2958 5.89201 25.2958 5.76C25.2958 5.62799 25.2697 5.49728 25.2189 5.37542C25.1681 5.25356 25.0937 5.14296 25 5.05L24.87 4.92L26.4 3.39C26.4937 3.29704 26.5681 3.18644 26.6189 3.06458C26.6697 2.94272 26.6958 2.81201 26.6958 2.68C26.6958 2.54799 26.6697 2.41728 26.6189 2.29542C26.5681 2.17356 26.4937 2.06296 26.4 1.97L24.68 0.29C24.4987 0.110023 24.2554 0.00625953 24 -4.51846e-07C23.8684 -0.000761345 23.7379 0.0244637 23.6161 0.0742283C23.4943 0.123993 23.3834 0.197318 23.29 0.29L21.74 1.83L21.6 1.69C21.4137 1.50526 21.1623 1.4011 20.9 1.4C20.7684 1.39924 20.6379 1.42446 20.5161 1.47423C20.3943 1.52399 20.2834 1.59732 20.19 1.69L11.79 10.09C11.6127 10.276 11.5138 10.5231 11.5138 10.78C11.5138 11.0369 11.6127 11.284 11.79 11.47L10.49 12.77C10.3963 12.863 10.3219 12.9736 10.2711 13.0954C10.2203 13.2173 10.1942 13.348 10.1942 13.48C10.1942 13.612 10.2203 13.7427 10.2711 13.8646C10.3219 13.9864 10.3963 14.097 10.49 14.19L12.49 16.19C12.5834 16.2827 12.6943 16.356 12.8161 16.4058C12.9379 16.4555 13.0684 16.4808 13.2 16.48C13.4623 16.4789 13.7137 16.3747 13.9 16.19L15.2 14.89C15.386 15.0673 15.6331 15.1662 15.89 15.1662C16.1469 15.1662 16.394 15.0673 16.58 14.89L18.47 13C18.954 13.2051 19.4743 13.3106 20 13.31C20.5817 13.3037 21.155 13.1706 21.68 12.92C23.439 14.0912 24.6891 15.8852 25.1789 17.9408C25.6687 19.9965 25.3618 22.1614 24.32 24H10.16L9.47 22.5H15C15.2652 22.5 15.5196 22.3946 15.7071 22.2071C15.8946 22.0196 16 21.7652 16 21.5V18.5C16 18.2348 15.8946 17.9804 15.7071 17.7929C15.5196 17.6054 15.2652 17.5 15 17.5H1C0.734784 17.5 0.48043 17.6054 0.292893 17.7929C0.105357 17.9804 0 18.2348 0 18.5V21.5C0 21.7652 0.105357 22.0196 0.292893 22.2071C0.48043 22.3946 0.734784 22.5 1 22.5H2.84L3.54 24H1C0.734784 24 0.48043 24.1054 0.292893 24.2929C0.105357 24.4804 0 24.7348 0 25V29C0 29.2652 0.105357 29.5196 0.292893 29.7071C0.48043 29.8946 0.734784 30 1 30H29C29.2652 30 29.5196 29.8946 29.7071 29.7071C29.8946 29.5196 30 29.2652 30 29V25C29.9964 24.7883 29.9257 24.5833 29.7981 24.4144C29.6705 24.2454 29.4926 24.1214 29.29 24.06ZM18.86 10.91C18.7397 10.8182 18.626 10.718 18.52 10.61L18.46 10.53C18.3854 10.4391 18.3185 10.3421 18.26 10.24L18.21 10.14C18.1597 10.0375 18.1195 9.93033 18.09 9.82V9.72C18.0586 9.57201 18.0418 9.42128 18.04 9.27C18.04 8.73957 18.2507 8.23086 18.6258 7.85579C19.0009 7.48071 19.5096 7.27 20.04 7.27C20.1913 7.27183 20.342 7.28857 20.49 7.32H20.6C20.7065 7.35133 20.8102 7.39147 20.91 7.44L21.02 7.5C21.1193 7.55403 21.2131 7.61767 21.3 7.69C21.331 7.7078 21.3582 7.7316 21.38 7.76C21.4926 7.85784 21.5933 7.9686 21.68 8.09V8.09C21.9072 8.44029 22.0191 8.85291 22 9.27C22 9.27 22 9.32 22 9.35C21.999 9.36665 21.999 9.38335 22 9.4C21.9829 9.69426 21.9009 9.98111 21.76 10.24C21.6983 10.3622 21.6173 10.4737 21.52 10.57V10.57C21.4228 10.6767 21.3157 10.7738 21.2 10.86V10.86C20.8656 11.0934 20.4678 11.219 20.06 11.22C19.6377 11.2423 19.2187 11.1341 18.86 10.91V10.91Z" fill="url(#paint0_linear_608_3794)"/>
<defs>
<linearGradient id="paint0_linear_608_3794" x1="15" y1="30" x2="15" y2="-1.71661e-05" gradientUnits="userSpaceOnUse">
<stop stop-color="#A93AFF"/>
<stop offset="1" stop-color="#FF81FF"/>
</linearGradient>
</defs>
</svg>
