<svg width="35" height="35" viewBox="0 0 35 35" fill="none" xmlns="http://www.w3.org/2000/svg">
<g clip-path="url(#clip0_608_3801)">
<path d="M17.5 35C27.165 35 35 27.165 35 17.5C35 7.83502 27.165 0 17.5 0C7.83502 0 0 7.83502 0 17.5C0 27.165 7.83502 35 17.5 35Z" fill="url(#paint0_linear_608_3801)"/>
<path d="M0.0961914 19.3412C3.05581 20.1717 6.1799 21.1446 8.1587 22.0316C11.7235 23.6295 26.8088 21.6039 34.6607 20.9418C33.0616 28.9585 25.9868 34.9999 17.4999 34.9999C8.45682 34.9999 1.01645 28.1406 0.0961914 19.3412Z" fill="#FED198"/>
<path d="M6.63758 23.2377C6.74969 23.0496 6.1864 22.4487 5.80243 23.9039C5.77563 24.0063 6.13766 24.525 6.41384 23.737L6.63758 23.2377ZM6.52765 25.8867C6.42532 25.6579 5.50001 25.5635 6.48541 26.7987C6.58029 26.9179 7.26395 27.0596 6.81716 26.3975L6.52765 25.8867ZM8.68132 28.0686C8.56053 28.001 7.42713 28.0167 9.25588 28.8745C9.32471 28.9066 10.2543 28.9034 9.18984 28.3525L8.68132 28.0686ZM11.9622 29.3651C11.8368 29.334 10.9124 29.59 12.4414 29.8979C13.4918 30.1095 13.3311 29.6435 12.8696 29.5587L11.9622 29.3651ZM15.6482 29.8404C15.5315 29.8404 14.702 30.2699 16.3132 30.2534C17.4124 30.2421 17.0707 29.8289 16.5612 29.8409L15.6482 29.8404ZM19.3729 29.5556C19.3003 29.5677 18.4851 30.2315 20.4246 29.7553C20.9037 29.6378 20.9999 29.195 20.0895 29.4068L19.3729 29.5556ZM22.8003 28.4707C22.6445 28.5431 22.4014 29.3271 24.0069 28.3135C24.1133 28.2464 24.2756 27.6549 23.3655 28.1732L22.8003 28.4707ZM25.3339 26.5042C25.2047 26.6775 25.652 27.3346 26.2644 25.9094C26.3035 25.8181 26.0331 25.2502 25.624 26.0376L25.3339 26.5042ZM25.8576 23.878C25.9233 24.0983 26.833 24.3115 26.0332 22.9754C25.9673 22.8653 25.2894 22.6297 25.6554 23.3656L25.8576 23.878Z" fill="#FEFEFE"/>
<path d="M7.79395 24.4955L12.4038 24.3971L15.8993 24.8005L13.9921 25.2935L7.79395 24.4955Z" fill="#FF5B62"/>
<path d="M20.6595 10.0096L23.1652 11.4522C23.6566 12.2493 23.6597 13.0841 23.2551 13.9509L19.3107 20.8011C15.9756 26.593 12.2195 24.6672 12.2195 24.6672L20.6595 10.0096ZM21.5051 11.0296L22.4625 11.5899L17.8249 19.515C17.3261 20.3673 16.369 19.8074 16.8676 18.9549L21.5051 11.0296Z" fill="#EEF3F7"/>
<path d="M23.5441 12.622C23.566 13.0558 23.4661 13.499 23.2552 13.9508L19.3107 20.8011C15.9756 26.593 12.2195 24.6672 12.2195 24.6672C16.1155 25.5578 18.5685 21.2631 18.5685 21.2631L23.5441 12.622Z" fill="#FEFEFE"/>
<path d="M29.9144 5.16667L27.0595 9.5859L24.3632 12.2027C24.0286 12.5273 23.5873 12.4342 23.4208 12.3384L20.6636 10.7508C20.1887 10.4773 20.0946 10.3793 20.4086 9.835L25.0872 1.7258C26.8897 2.59444 28.52 3.76311 29.9144 5.16667Z" fill="#FAD24D"/>
<path d="M20.4142 10.5954C20.3552 10.4482 20.4161 10.2625 20.6018 9.94082L25.2863 1.82485C25.22 1.79183 25.1541 1.75807 25.0871 1.7258L20.4085 9.835C20.1608 10.2644 20.1672 10.4163 20.4142 10.5954Z" fill="#FFF985"/>
<path d="M21.6629 11.3262L17.1209 19.0881C16.9086 19.4508 16.9602 19.7605 17.1277 19.931C16.7929 19.8713 16.5687 19.4656 16.8677 18.9548L21.4151 11.1835L21.6629 11.3262Z" fill="#D9DADA"/>
<path d="M23.771 6.33281L26.9307 7.98882C27.0989 8.07693 27.1675 8.28509 27.0834 8.45127L27.0833 8.45134C26.9991 8.61745 26.7928 8.6813 26.6246 8.59325L23.4649 6.93725C23.2966 6.84906 23.2279 6.64098 23.3121 6.47486V6.47473C23.3964 6.30861 23.6029 6.24483 23.771 6.33281ZM25.3098 3.69052L28.4695 5.34652C28.6377 5.43457 28.7064 5.64266 28.6222 5.80891L28.6222 5.80898C28.5379 5.97523 28.3316 6.039 28.1634 5.95089L25.0037 4.29488C24.8355 4.2067 24.7667 3.99861 24.851 3.8325V3.83243C24.9351 3.66611 25.1416 3.60233 25.3098 3.69052ZM24.5404 5.01163L27.7001 6.66764C27.8683 6.75575 27.9369 6.96391 27.8528 7.13002L27.8528 7.13009C27.7686 7.29634 27.5622 7.36012 27.394 7.272L24.2342 5.616C24.0661 5.52788 23.9974 5.31986 24.0815 5.15361V5.15355C24.1657 4.98736 24.3722 4.92345 24.5404 5.01163Z" fill="#EDB937"/>
</g>
<defs>
<linearGradient id="paint0_linear_608_3801" x1="17.5" y1="0" x2="17.5" y2="35" gradientUnits="userSpaceOnUse">
<stop stop-color="#6CC2F1"/>
<stop offset="1" stop-color="#349BD3"/>
</linearGradient>
<clipPath id="clip0_608_3801">
<rect width="35" height="35" fill="white"/>
</clipPath>
</defs>
</svg>
