<svg width="33" height="33" viewBox="0 0 33 33" fill="none" xmlns="http://www.w3.org/2000/svg">
<circle r="11" transform="matrix(4.37114e-08 -1 -1 -4.37114e-08 19.25 16.5)" fill="#B3DEFF" fill-opacity="0.17"/>
<circle r="11.3" transform="matrix(4.37114e-08 -1 -1 -4.37114e-08 19.25 16.5)" stroke="#B3DEFF" stroke-opacity="0.17" stroke-width="0.6"/>
<path d="M6.77728 26.2227C8.70025 28.1457 11.1503 29.4553 13.8175 29.9858C16.4847 30.5163 19.2494 30.244 21.7619 29.2033C24.2744 28.1626 26.4218 26.4003 27.9327 24.1391C29.4436 21.8779 30.25 19.2195 30.25 16.5C30.25 13.7805 29.4436 11.1221 27.9327 8.86091C26.4218 6.59973 24.2744 4.83736 21.7619 3.79666C19.2494 2.75595 16.4847 2.48366 13.8175 3.0142C11.1503 3.54475 8.70026 4.85431 6.77728 6.77728" stroke="#6CC2F1" stroke-width="1.2"/>
<path d="M20.625 16.5L21.0935 16.1252L21.3934 16.5L21.0935 16.8748L20.625 16.5ZM4.125 17.1C3.79363 17.1 3.525 16.8314 3.525 16.5C3.525 16.1686 3.79363 15.9 4.125 15.9V17.1ZM15.5935 9.25018L21.0935 16.1252L20.1565 16.8748L14.6565 9.99982L15.5935 9.25018ZM21.0935 16.8748L15.5935 23.7498L14.6565 23.0002L20.1565 16.1252L21.0935 16.8748ZM20.625 17.1H4.125V15.9H20.625V17.1Z" fill="#6CC2F1"/>
</svg>
