<svg width="27" height="27" viewBox="0 0 27 27" fill="none" xmlns="http://www.w3.org/2000/svg">
<path d="M26.361 21.654C27.2121 19.1739 27.2054 16.4798 26.342 14.004C25.4786 11.5282 23.8087 9.41413 21.6 8.00101C21.5707 7.64589 21.4888 7.29708 21.357 6.96601L22.5 5.82301C22.5844 5.73935 22.6513 5.6398 22.697 5.53013C22.7427 5.42046 22.7662 5.30282 22.7662 5.18401C22.7662 5.0652 22.7427 4.94757 22.697 4.83789C22.6513 4.72822 22.5844 4.62868 22.5 4.54501L22.383 4.42801L23.76 3.05101C23.8444 2.96735 23.9113 2.86781 23.957 2.75813C24.0027 2.64846 24.0262 2.53082 24.0262 2.41201C24.0262 2.2932 24.0027 2.17557 23.957 2.0659C23.9113 1.95622 23.8444 1.85668 23.76 1.77301L22.212 0.261015C22.0488 0.0990365 21.8298 0.00564903 21.6 1.50429e-05C21.4816 -0.000669761 21.3641 0.0220328 21.2545 0.0668209C21.1448 0.111609 21.0451 0.177602 20.961 0.261015L19.566 1.64701L19.44 1.52101C19.2724 1.35474 19.0461 1.26101 18.81 1.26001C18.6916 1.25933 18.5741 1.28203 18.4645 1.32682C18.3548 1.37161 18.2551 1.4376 18.171 1.52101L10.611 9.08101C10.4514 9.24839 10.3624 9.47076 10.3624 9.70201C10.3624 9.93326 10.4514 10.1556 10.611 10.323L9.441 11.493C9.35664 11.5767 9.28969 11.6762 9.244 11.7859C9.19831 11.8956 9.17478 12.0132 9.17478 12.132C9.17478 12.2508 9.19831 12.3685 9.244 12.4781C9.28969 12.5878 9.35664 12.6873 9.441 12.771L11.241 14.571C11.3251 14.6544 11.4248 14.7204 11.5345 14.7652C11.6441 14.81 11.7616 14.8327 11.88 14.832C12.1161 14.831 12.3424 14.7373 12.51 14.571L13.68 13.401C13.8474 13.5606 14.0698 13.6496 14.301 13.6496C14.5322 13.6496 14.7546 13.5606 14.922 13.401L16.623 11.7C17.0586 11.8846 17.5269 11.9795 18 11.979C18.5235 11.9733 19.0395 11.8536 19.512 11.628C21.0951 12.6821 22.2202 14.2966 22.661 16.1468C23.1018 17.9969 22.8256 19.9453 21.888 21.6H9.144L8.523 20.25H13.5C13.7387 20.25 13.9676 20.1552 14.1364 19.9864C14.3052 19.8176 14.4 19.5887 14.4 19.35V16.65C14.4 16.4113 14.3052 16.1824 14.1364 16.0136C13.9676 15.8448 13.7387 15.75 13.5 15.75H0.9C0.661305 15.75 0.432387 15.8448 0.263604 16.0136C0.0948211 16.1824 0 16.4113 0 16.65V19.35C0 19.5887 0.0948211 19.8176 0.263604 19.9864C0.432387 20.1552 0.661305 20.25 0.9 20.25H2.556L3.186 21.6H0.9C0.661305 21.6 0.432387 21.6948 0.263604 21.8636C0.0948211 22.0324 0 22.2613 0 22.5V26.1C0 26.3387 0.0948211 26.5676 0.263604 26.7364C0.432387 26.9052 0.661305 27 0.9 27H26.1C26.3387 27 26.5676 26.9052 26.7364 26.7364C26.9052 26.5676 27 26.3387 27 26.1V22.5C26.9967 22.3095 26.9331 22.125 26.8183 21.9729C26.7035 21.8209 26.5433 21.7092 26.361 21.654ZM16.974 9.81901C16.8657 9.73643 16.7634 9.6462 16.668 9.54901L16.614 9.47701C16.5468 9.39518 16.4866 9.30788 16.434 9.21601L16.389 9.12601C16.3437 9.03376 16.3075 8.9373 16.281 8.83801V8.74801C16.2527 8.61482 16.2376 8.47916 16.236 8.34301C16.236 7.86562 16.4256 7.40778 16.7632 7.07022C17.1008 6.73265 17.5586 6.54301 18.036 6.54301C18.1722 6.54466 18.3078 6.55973 18.441 6.58801H18.54C18.6358 6.61621 18.7292 6.65233 18.819 6.69601L18.918 6.75001C19.0074 6.79864 19.0918 6.85591 19.17 6.92101C19.1979 6.93703 19.2224 6.95845 19.242 6.98401C19.3433 7.07207 19.434 7.17176 19.512 7.28101C19.7165 7.59627 19.8172 7.96763 19.8 8.34301C19.8 8.34301 19.8 8.38801 19.8 8.41501C19.7991 8.43 19.7991 8.44502 19.8 8.46001C19.7846 8.72485 19.7108 8.98301 19.584 9.21601C19.5285 9.326 19.4555 9.4263 19.368 9.51301C19.2806 9.609 19.1841 9.6964 19.08 9.77401C18.779 9.98409 18.421 10.0971 18.054 10.098C17.6739 10.1181 17.2968 10.0207 16.974 9.81901Z" fill="#4068C5"/>
</svg>
