<svg width="26" height="26" viewBox="0 0 26 26" fill="none" xmlns="http://www.w3.org/2000/svg">
<path d="M13.2475 0.651367C6.30214 0.651367 0.651367 6.30214 0.651367 13.2475C0.651367 20.1929 6.30214 25.8437 13.2475 25.8437C20.1929 25.8437 25.8437 20.1929 25.8437 13.2475C25.8437 6.30214 20.1929 0.651367 13.2475 0.651367Z" fill="#F77C7C"/>
<path d="M3.75116 13.2475C3.75116 6.8266 8.58045 1.51329 14.7974 0.74704C14.2895 0.684418 13.7724 0.651367 13.2475 0.651367C6.30214 0.651367 0.651367 6.30214 0.651367 13.2475C0.651367 20.1929 6.30214 25.8437 13.2475 25.8437C13.7724 25.8437 14.2895 25.8111 14.7974 25.748C8.58045 24.9822 3.75116 19.6685 3.75116 13.2475Z" fill="#F25C5C"/>
<path d="M15.8888 19.3494C15.8888 20.9015 14.6307 22.16 13.0782 22.16C11.5261 22.16 10.2676 20.9015 10.2676 19.3494C10.2676 17.7969 11.5261 16.5388 13.0782 16.5388C14.6307 16.5388 15.8888 17.7969 15.8888 19.3494Z" fill="#F25C5C"/>
<path d="M13.3674 19.3494C13.3674 18.3701 13.8683 17.5077 14.6281 17.005C14.1836 16.7106 13.6513 16.5388 13.0782 16.5388C11.5261 16.5388 10.2676 17.7969 10.2676 19.3494C10.2676 20.9015 11.5261 22.16 13.0782 22.16C13.6513 22.16 14.1836 21.9882 14.6281 21.6938C13.8683 21.1907 13.3674 20.3288 13.3674 19.3494Z" fill="#E54A4A"/>
<path d="M19.0707 13.4628C19.0707 14.3412 18.3583 15.0536 17.4799 15.0536C16.601 15.0536 15.8887 14.3412 15.8887 13.4628C15.8887 12.5839 16.601 11.8716 17.4799 11.8716C18.3583 11.8716 19.0707 12.5839 19.0707 13.4628Z" fill="#F25C5C"/>
<path d="M18.3857 13.4628C18.3857 13.0905 18.5145 12.7492 18.728 12.4787C18.437 12.1095 17.9865 11.8716 17.4799 11.8716C16.601 11.8716 15.8887 12.5839 15.8887 13.4628C15.8887 14.3412 16.601 15.0536 17.4799 15.0536C17.9865 15.0536 18.437 14.8157 18.728 14.4469C18.5145 14.176 18.3857 13.8346 18.3857 13.4628Z" fill="#E54A4A"/>
<path d="M14.247 10.1469C14.247 11.9177 12.8115 13.3537 11.0403 13.3537C9.26902 13.3537 7.8335 11.9177 7.8335 10.1469C7.8335 8.37566 9.26902 6.9397 11.0403 6.9397C12.8115 6.9397 14.247 8.37566 14.247 10.1469Z" fill="#F25C5C"/>
<path d="M10.9329 10.1469C10.9329 8.93795 11.6021 7.88555 12.5902 7.33891C12.1305 7.08495 11.6026 6.9397 11.0403 6.9397C9.26902 6.9397 7.8335 8.37566 7.8335 10.1469C7.8335 11.9177 9.26902 13.3537 11.0403 13.3537C11.6026 13.3537 12.1305 13.2084 12.5902 12.9545C11.6021 12.4078 10.9329 11.3559 10.9329 10.1469Z" fill="#E54A4A"/>
<path d="M7.72744 16.3C7.72744 17.0467 7.12209 17.652 6.37498 17.652C5.6283 17.652 5.02295 17.0467 5.02295 16.3C5.02295 15.5529 5.6283 14.9475 6.37498 14.9475C7.12209 14.9475 7.72744 15.5529 7.72744 16.3Z" fill="#F25C5C"/>
<path d="M20.5076 7.33758C20.5076 8.34823 19.6883 9.1671 18.6781 9.1671C17.6675 9.1671 16.8481 8.34823 16.8481 7.33758C16.8481 6.32693 17.6675 5.50806 18.6781 5.50806C19.6883 5.50806 20.5076 6.32693 20.5076 7.33758Z" fill="#F25C5C"/>
<path d="M19.9479 7.33758C19.9479 6.98141 20.0514 6.6496 20.2276 6.36868C19.9044 5.85248 19.3322 5.50806 18.6781 5.50806C17.6675 5.50806 16.8481 6.32736 16.8481 7.33758C16.8481 8.34779 17.6675 9.1671 18.6781 9.1671C19.3322 9.1671 19.9044 8.82268 20.2276 8.30648C20.0514 8.02555 19.9479 7.69374 19.9479 7.33758Z" fill="#E54A4A"/>
<path d="M18.4555 18.7358C18.1528 18.4331 18.1528 17.9426 18.4555 17.6399L19 17.0959C19.3027 16.7932 19.7932 16.7932 20.0959 17.0959C20.3985 17.3986 20.3985 17.8891 20.0959 18.1918L19.5514 18.7363C19.2487 19.0385 18.7582 19.0389 18.4555 18.7358Z" fill="#E54A4A"/>
</svg>
