<svg width="30" height="30" viewBox="0 0 30 30" fill="none" xmlns="http://www.w3.org/2000/svg">
<path fill-rule="evenodd" clip-rule="evenodd" d="M15.0323 0C11.2682 0 7.83899 1.24333 5.80982 2.25917C5.62649 2.35083 5.45565 2.44083 5.29649 2.5275C4.98149 2.69917 4.71315 2.85917 4.49982 3L6.80815 6.39833L7.89482 6.83083C12.1415 8.97333 17.8365 8.97333 22.084 6.83083L23.3173 6.19083L25.4998 3C25.0478 2.70505 24.5777 2.43869 24.0923 2.2025C22.0732 1.1975 18.7257 0 15.0332 0H15.0323ZM9.66399 3.84667C8.84658 3.69372 8.03926 3.49112 7.24649 3.24C9.14732 2.39583 11.9798 1.5 15.0323 1.5C17.1465 1.5 19.1457 1.93 20.799 2.475C18.8615 2.7475 16.794 3.21 14.824 3.77917C13.274 4.2275 11.4623 4.17917 9.66399 3.84667ZM22.964 8.06667L22.759 8.17C18.0873 10.5267 11.8907 10.5267 7.21899 8.17L7.02482 8.07167C0.00648779 15.7725 -5.35185 29.9975 15.0323 29.9975C35.4165 29.9975 29.9273 15.5067 22.964 8.06667ZM14.1665 15C13.7245 15 13.3005 15.1756 12.988 15.4882C12.6754 15.8007 12.4998 16.2246 12.4998 16.6667C12.4998 17.1087 12.6754 17.5326 12.988 17.8452C13.3005 18.1577 13.7245 18.3333 14.1665 18.3333V15ZM15.8332 13.3333V12.5H14.1665V13.3333C13.2824 13.3333 12.4346 13.6845 11.8095 14.3096C11.1843 14.9348 10.8332 15.7826 10.8332 16.6667C10.8332 17.5507 11.1843 18.3986 11.8095 19.0237C12.4346 19.6488 13.2824 20 14.1665 20V23.3333C13.4415 23.3333 12.824 22.8708 12.594 22.2225C12.5599 22.1164 12.5048 22.0183 12.4321 21.9339C12.3594 21.8494 12.2705 21.7804 12.1706 21.731C12.0708 21.6815 11.962 21.6526 11.8508 21.6459C11.7396 21.6392 11.6281 21.6549 11.5231 21.692C11.418 21.7291 11.3215 21.7869 11.2391 21.862C11.1568 21.9371 11.0904 22.0279 11.0438 22.1291C10.9972 22.2303 10.9713 22.3399 10.9678 22.4512C10.9642 22.5626 10.9831 22.6735 11.0232 22.7775C11.253 23.4275 11.6787 23.9902 12.2417 24.3882C12.8046 24.7863 13.4771 25 14.1665 25V25.8333H15.8332V25C16.7172 25 17.5651 24.6488 18.1902 24.0237C18.8153 23.3986 19.1665 22.5507 19.1665 21.6667C19.1665 20.7826 18.8153 19.9348 18.1902 19.3096C17.5651 18.6845 16.7172 18.3333 15.8332 18.3333V15C16.5582 15 17.1757 15.4625 17.4057 16.1108C17.4398 16.2169 17.4948 16.3151 17.5675 16.3995C17.6403 16.4839 17.7292 16.5529 17.829 16.6023C17.9289 16.6518 18.0376 16.6807 18.1488 16.6874C18.2601 16.6941 18.3715 16.6785 18.4766 16.6414C18.5816 16.6042 18.6782 16.5464 18.7605 16.4713C18.8428 16.3963 18.9093 16.3054 18.9559 16.2042C19.0025 16.103 19.0283 15.9935 19.0319 15.8821C19.0354 15.7707 19.0166 15.6598 18.9765 15.5558C18.7466 14.9059 18.3209 14.3431 17.758 13.9451C17.1951 13.5471 16.5226 13.3333 15.8332 13.3333ZM15.8332 20V23.3333C16.2752 23.3333 16.6991 23.1577 17.0117 22.8452C17.3242 22.5326 17.4998 22.1087 17.4998 21.6667C17.4998 21.2246 17.3242 20.8007 17.0117 20.4882C16.6991 20.1756 16.2752 20 15.8332 20Z" fill="#4068C5"/>
</svg>
