<svg width="22" height="28" viewBox="0 0 22 28" fill="none" xmlns="http://www.w3.org/2000/svg">
<path d="M10.9993 -0.000244141C8.08295 0.00321614 5.28707 1.16325 3.22491 3.2254C1.16276 5.28755 0.00272786 8.08344 -0.000732422 10.9998C-0.000732422 20.4119 9.99927 27.5212 10.425 27.8191C10.5934 27.9367 10.7939 27.9998 10.9993 27.9998C11.2047 27.9998 11.4051 27.9367 11.5735 27.8191C11.9993 27.5212 21.9993 20.4119 21.9993 10.9998C21.9958 8.08344 20.8358 5.28755 18.7736 3.2254C16.7115 1.16325 13.9156 0.00321581 10.9993 -0.000244141ZM11 7.00012C11.7911 7.00012 12.5645 7.23471 13.2223 7.67424C13.8801 8.11377 14.3928 8.73848 14.6955 9.46938C14.9983 10.2003 15.0775 11.0046 14.9231 11.7805C14.7688 12.5564 14.3878 13.2691 13.8284 13.8285C13.269 14.388 12.5563 14.7689 11.7804 14.9233C11.0044 15.0776 10.2002 14.9984 9.46927 14.6956C8.73836 14.3929 8.11365 13.8802 7.67412 13.2224C7.2346 12.5646 7 11.7912 7 11.0001C6.99999 10.4748 7.10344 9.95468 7.30445 9.46937C7.50546 8.98406 7.8001 8.54309 8.17154 8.17166C8.54298 7.80022 8.98394 7.50558 9.46925 7.30457C9.95456 7.10356 10.4747 7.0001 11 7.00012Z" fill="#4068C5"/>
</svg>
